<svg width="13" height="19" fill="none" xmlns="http://www.w3.org/2000/svg"><mask id="a" fill="#fff"><path fill-rule="evenodd" clip-rule="evenodd" d="M13 1a1 1 0 0 0-1-1H1a1 1 0 0 0-1 1v16.113c0 .87 1.033 1.325 1.674.738l4.152-3.792a1 1 0 0 1 1.348 0l4.152 3.792c.641.587 1.674.131 1.674-.738V1Z"/></mask><path d="m11.326 17.851 1.348-1.476-1.348 1.476Zm-5.5-3.792 1.348 1.477-1.348-1.477Zm1.348 0-1.348 1.477 1.348-1.477Zm-5.5 3.792L.326 16.375l1.348 1.476ZM1 2h11v-4H1v4Zm1 15.113V1h-4v16.113h4Zm1.023 2.215 4.151-3.792-2.697-2.953-4.151 3.792 2.697 2.953Zm2.803-3.792 4.15 3.792 2.698-2.953-4.15-3.792-2.698 2.953ZM11 1v16.113h4V1h-4ZM9.977 19.328C11.902 21.087 15 19.72 15 17.113h-4c0-.87 1.033-1.325 1.674-.738l-2.697 2.953Zm-2.803-3.792a1 1 0 0 1-1.348 0l2.697-2.953a3 3 0 0 0-4.046 0l2.697 2.953ZM-2 17.113c0 2.608 3.098 3.974 5.023 2.215L.326 16.375C.967 15.788 2 16.244 2 17.113h-4ZM12 2a1 1 0 0 1-1-1h4a3 3 0 0 0-3-3v4ZM1-2a3 3 0 0 0-3 3h4a1 1 0 0 1-1 1v-4Z" fill="#fff" mask="url(#a)"/></svg>