<svg width="20" height="20" fill="none" xmlns="http://www.w3.org/2000/svg"><mask id="a" fill="#fff"><path fill-rule="evenodd" clip-rule="evenodd" d="M7.5 0a7.5 7.5 0 1 0 0 15h3.41l-.063 4.653 6.15-6.15A7.5 7.5 0 0 0 12.5 0H7.501Z"/></mask><path d="m10.91 15 2 .027.026-2.027H10.91v2Zm-.063 4.653-2-.027-.065 4.92 3.48-3.479-1.415-1.414Zm6.15-6.15-1.2-1.6-.113.085-.1.1 1.414 1.414ZM2 7.5A5.5 5.5 0 0 1 7.5 2v-4A9.5 9.5 0 0 0-2 7.5h4ZM7.5 13A5.5 5.5 0 0 1 2 7.5h-4A9.5 9.5 0 0 0 7.5 17v-4Zm3.41 0H7.5v4h3.41v-4Zm1.937 6.68.062-4.653-4-.054-.062 4.653 4 .054Zm2.737-7.592-6.151 6.15 2.828 2.829 6.151-6.15-2.828-2.829ZM18 7.5a5.488 5.488 0 0 1-2.203 4.403l2.401 3.199A9.489 9.489 0 0 0 22 7.5h-4ZM12.5 2A5.5 5.5 0 0 1 18 7.5h4A9.5 9.5 0 0 0 12.5-2v4Zm-5 0h5v-4h-5v4Z" fill="#fff" mask="url(#a)"/></svg>