<svg width="20" height="20" viewBox="0 0 20 20" fill="none" xmlns="http://www.w3.org/2000/svg">
<mask id="path-1-inside-1_288_50" fill="white">
<path fill-rule="evenodd" clip-rule="evenodd" d="M7.5 0C3.35786 0 0 3.35786 0 7.5C0 11.6421 3.35786 15 7.5 15H10.9095L10.8472 19.6528L16.9978 13.5022C18.8207 12.134 20 9.95472 20 7.5C20 3.35786 16.6421 0 12.5 0H7.5Z"/>
</mask>
<path d="M10.9095 15L12.9093 15.0268L12.9364 13H10.9095V15ZM10.8472 19.6528L8.84739 19.626L8.78151 24.5469L12.2614 21.067L10.8472 19.6528ZM16.9978 13.5022L15.7972 11.9026L15.6838 11.9877L15.5836 12.088L16.9978 13.5022ZM2 7.5C2 4.46243 4.46243 2 7.5 2V-2C2.2533 -2 -2 2.2533 -2 7.5H2ZM7.5 13C4.46243 13 2 10.5376 2 7.5H-2C-2 12.7467 2.2533 17 7.5 17V13ZM10.9095 13H7.5V17H10.9095V13ZM12.847 19.6796L12.9093 15.0268L8.90967 14.9732L8.84739 19.626L12.847 19.6796ZM15.5836 12.088L9.43299 18.2386L12.2614 21.067L18.412 14.9164L15.5836 12.088ZM18 7.5C18 9.29883 17.1386 10.8959 15.7972 11.9026L18.1984 15.1018C20.5029 13.3721 22 10.6106 22 7.5H18ZM12.5 2C15.5376 2 18 4.46243 18 7.5H22C22 2.2533 17.7467 -2 12.5 -2V2ZM7.5 2H12.5V-2H7.5V2Z" fill="white" mask="url(#path-1-inside-1_288_50)"/>
</svg>
