<svg width="17" height="19" fill="none" xmlns="http://www.w3.org/2000/svg"><path fill-rule="evenodd" clip-rule="evenodd" d="M15.65 7.695A7.61 7.61 0 0 1 13.29 13.2l3.146 3.686a.982.982 0 0 1-.122 1.4 1.023 1.023 0 0 1-1.424-.125l-3.215-3.766a7.892 7.892 0 0 1-3.851.995C3.503 15.39 0 11.944 0 7.694 0 3.445 3.503 0 7.825 0c4.321 0 7.824 3.445 7.824 7.695ZM7.82 13.6c3.325 0 6.02-2.646 6.02-5.91 0-3.264-2.695-5.91-6.02-5.91-3.325 0-6.02 2.646-6.02 5.91 0 3.264 2.695 5.91 6.02 5.91Z" fill="#fff"/></svg>